<mxfile host="app.diagrams.net" modified="2024-07-16T23:28:08.354Z" agent="Mozilla/5.0 (Windows NT 10.0; Win64; x64; rv:128.0) Gecko/20100101 Firefox/128.0" version="24.6.5" etag="I3-MBcv6rowVE_OLQY8V" type="github">
  <diagram name="Page-1" id="5HL922aKnjF8P7i_e0VB">
    <mxGraphModel>
      <root>
        <mxCell id="0" />
        <mxCell id="1" parent="0" />
      </root>
    </mxGraphModel>
  </diagram>
</mxfile>
